<?xml version="1.0" encoding="UTF-8" standalone="no"?>
<svg
   width="16"
   height="16"
   version="1.1"
   id="svg1"
   sodipodi:docname="reboot.svg"
   inkscape:version="1.4.4 (dcaf3e7d9e, 2026-05-05)"
   xmlns:inkscape="http://www.inkscape.org/namespaces/inkscape"
   xmlns:sodipodi="http://sodipodi.sourceforge.net/DTD/sodipodi-0.dtd"
   xmlns="http://www.w3.org/2000/svg"
   xmlns:svg="http://www.w3.org/2000/svg">
  <defs
     id="defs1" />
  <sodipodi:namedview
     id="namedview1"
     pagecolor="#505050"
     bordercolor="#eeeeee"
     borderopacity="1"
     inkscape:showpageshadow="0"
     inkscape:pageopacity="0"
     inkscape:pagecheckerboard="0"
     inkscape:deskcolor="#505050"
     inkscape:zoom="3.3125"
     inkscape:cx="8"
     inkscape:cy="7.8490566"
     inkscape:window-width="1081"
     inkscape:window-height="754"
     inkscape:window-x="0"
     inkscape:window-y="0"
     inkscape:window-maximized="1"
     inkscape:current-layer="svg1" />
  <path
     style="fill:#ffffff;fill-opacity:1"
     d="M 8,2 A 1,1 0 0 0 7,3 1,1 0 0 0 8,4 4,4 0 0 1 12,8 H 10 L 13,12 16,8 H 14 A 6,6 0 0 0 8,2 Z M 3,4 0,8 H 2 A 6,6 0 0 0 8,14 1,1 0 0 0 9,13 1,1 0 0 0 8,12 4,4 0 0 1 4,8 H 6 Z"
     id="path1" />
</svg>
