<?xml version="1.0" encoding="UTF-8" standalone="no"?>
<svg
   width="16"
   height="16"
   version="1.1"
   id="svg1"
   sodipodi:docname="settings.svg"
   inkscape:version="1.4.4 (dcaf3e7d9e, 2026-05-05)"
   xmlns:inkscape="http://www.inkscape.org/namespaces/inkscape"
   xmlns:sodipodi="http://sodipodi.sourceforge.net/DTD/sodipodi-0.dtd"
   xmlns="http://www.w3.org/2000/svg"
   xmlns:svg="http://www.w3.org/2000/svg">
  <defs
     id="defs1" />
  <sodipodi:namedview
     id="namedview1"
     pagecolor="#505050"
     bordercolor="#eeeeee"
     borderopacity="1"
     inkscape:showpageshadow="0"
     inkscape:pageopacity="0"
     inkscape:pagecheckerboard="0"
     inkscape:deskcolor="#505050"
     inkscape:zoom="10.25"
     inkscape:cx="7.9512195"
     inkscape:cy="8"
     inkscape:window-width="1081"
     inkscape:window-height="754"
     inkscape:window-x="0"
     inkscape:window-y="0"
     inkscape:window-maximized="1"
     inkscape:current-layer="svg1" />
  <path
     style="fill:#ffffff;fill-opacity:1"
     d="M 6.25,1 6.09,2.84 A 5.5,5.5 0 0 0 4.49,3.77 L 2.81,2.98 1.06,6.01 2.58,7.07 A 5.5,5.5 0 0 0 2.5,8 5.5,5.5 0 0 0 2.58,8.93 L 1.06,9.98 2.81,13.01 4.48,12.22 A 5.5,5.5 0 0 0 6.09,13.15 L 6.25,15 H 9.75 L 9.9,13.15 A 5.5,5.5 0 0 0 11.51,12.22 L 13.19,13.01 14.94,9.98 13.41,8.92 A 5.5,5.5 0 0 0 13.5,8 5.5,5.5 0 0 0 13.42,7.06 L 14.94,6.01 13.19,2.98 11.51,3.77 A 5.5,5.5 0 0 0 9.9,2.84 L 9.75,1 Z M 8,6 A 2,2 0 0 1 10,8 2,2 0 0 1 8,10 2,2 0 0 1 6,8 2,2 0 0 1 8,6 Z"
     id="path1" />
</svg>
